<svg xmlns="http://www.w3.org/2000/svg" width="1600" height="650" viewBox="0 0 1600 650">
  <defs>
    <linearGradient id="bg" x1="0" y1="0" x2="1" y2="1">
      <stop offset="0" stop-color="#ffffff"/>
      <stop offset="1" stop-color="#f3f4f6"/>
    </linearGradient>
  </defs>
  <rect width="1600" height="650" fill="url(#bg)"/>
  <!-- Wristband / AR motif -->
  <g transform="translate(420,160)">
    <rect x="0" y="90" width="760" height="80" rx="40" fill="#7C3AED" opacity=".15"/>
    <rect x="200" y="70" width="300" height="120" rx="28" fill="#fff" stroke="#e5e7eb"/>
    <circle cx="260" cy="130" r="22" fill="#00d355"/>
    <rect x="300" y="114" width="160" height="32" rx="16" fill="#00AEEF"/>
  </g>
  <!-- Sparkles -->
  <g opacity=".7">
    <path d="M260 220 l12 24 l24 12 l-24 12 l-12 24 l-12 -24 l-24 -12 l24 -12 z" fill="#00d355"/>
    <path d="M1280 220 l10 20 l20 10 l-20 10 l-10 20 l-10 -20 l-20 -10 l20 -10 z" fill="#1F5E4B"/>
  </g>
</svg>
